<svg width="25" height="24" viewBox="0 0 25 24" fill="none" xmlns="http://www.w3.org/2000/svg">
<path d="M12.1469 10.28C11.1144 10.28 10.082 10.1 9.10008 9.75C8.70531 9.61 8.50286 9.18 8.64457 8.79C8.79641 8.4 9.23167 8.2 9.62645 8.34C11.2562 8.92 13.0478 8.92 14.6776 8.34C15.0723 8.2 15.5076 8.4 15.6493 8.79C15.791 9.18 15.5886 9.61 15.1938 9.75C14.2119 10.1 13.1794 10.28 12.1469 10.28Z" fill="black"/>
<path d="M19.3035 22.75C18.7873 22.75 18.2204 22.6 17.6738 22.29L12.734 19.58C12.4405 19.42 11.8635 19.42 11.57 19.58L6.6302 22.29C5.62808 22.84 4.60571 22.9 3.82629 22.44C3.04686 21.99 2.60147 21.08 2.60147 19.95V5.86C2.60147 3.32 4.69682 1.25 7.26792 1.25H17.0361C19.6072 1.25 21.7025 3.32 21.7025 5.86V19.95C21.7025 21.08 21.2571 21.99 20.4777 22.44C20.1234 22.65 19.7185 22.75 19.3035 22.75ZM12.1469 17.96C12.6227 17.96 13.0883 18.06 13.4629 18.27L18.4026 20.98C18.9189 21.27 19.3946 21.33 19.6983 21.15C20.002 20.97 20.174 20.54 20.174 19.95V5.86C20.174 4.15 18.7569 2.75 17.026 2.75H7.26792C5.53698 2.75 4.11984 4.15 4.11984 5.86V19.95C4.11984 20.54 4.29192 20.98 4.59559 21.15C4.89926 21.32 5.3649 21.27 5.89126 20.98L10.831 18.27C11.2056 18.06 11.6712 17.96 12.1469 17.96Z" fill="black"/>
<path d="M19.3035 22.75C18.7873 22.75 18.2204 22.6 17.6738 22.29L12.734 19.58C12.4405 19.42 11.8635 19.42 11.57 19.58L6.6302 22.29C5.62808 22.84 4.60571 22.9 3.82629 22.44C3.04686 21.99 2.60147 21.08 2.60147 19.95V5.86C2.60147 3.32 4.69682 1.25 7.26792 1.25H17.0361C19.6072 1.25 21.7025 3.32 21.7025 5.86V19.95C21.7025 21.08 21.2571 21.99 20.4777 22.44C20.1234 22.65 19.7185 22.75 19.3035 22.75ZM12.1469 17.96C12.6227 17.96 13.0883 18.06 13.4629 18.27L18.4026 20.98C18.9189 21.27 19.3946 21.33 19.6983 21.15C20.002 20.97 20.174 20.54 20.174 19.95V5.86C20.174 4.15 18.7569 2.75 17.026 2.75H7.26792C5.53698 2.75 4.11984 4.15 4.11984 5.86V19.95C4.11984 20.54 4.29192 20.98 4.59559 21.15C4.89926 21.32 5.3649 21.27 5.89126 20.98L10.831 18.27C11.2056 18.06 11.6712 17.96 12.1469 17.96Z" fill="black"/>
</svg>
