<svg width="25" height="24" viewBox="0 0 25 24" fill="none" xmlns="http://www.w3.org/2000/svg">
<path d="M9.0191 20.67C8.82678 20.67 8.63445 20.6 8.48261 20.45C8.18906 20.16 8.18906 19.68 8.48261 19.39L15.0825 12.87C15.5683 12.39 15.5683 11.61 15.0825 11.13L8.48261 4.61C8.18906 4.32 8.18906 3.84 8.48261 3.55C8.77617 3.26 9.26204 3.26 9.55559 3.55L16.1554 10.07C16.6717 10.58 16.9652 11.27 16.9652 12C16.9652 12.73 16.6818 13.42 16.1554 13.93L9.55559 20.45C9.40376 20.59 9.21143 20.67 9.0191 20.67Z" fill="black"/>
</svg>
