<svg width="25" height="24" viewBox="0 0 25 24" fill="none" xmlns="http://www.w3.org/2000/svg">
<path d="M17.6637 22.75C16.5198 22.75 15.3153 22.48 14.0702 21.96C12.8555 21.45 11.6307 20.75 10.4362 19.9C9.25192 19.04 8.10808 18.08 7.02498 17.03C5.952 15.96 4.98024 14.83 4.11984 13.67C3.2493 12.47 2.55086 11.27 2.05486 10.11C1.52849 8.87 1.2653 7.67 1.2653 6.54C1.2653 5.76 1.40702 5.02 1.68032 4.33C1.96375 3.62 2.41926 2.96 3.03673 2.39C3.81616 1.63 4.70694 1.25 5.65845 1.25C6.05322 1.25 6.45812 1.34 6.80228 1.5C7.19706 1.68 7.5311 1.95 7.77404 2.31L10.1224 5.58C10.335 5.87 10.497 6.15 10.6083 6.43C10.7399 6.73 10.8108 7.03 10.8108 7.32C10.8108 7.7 10.6994 8.07 10.4869 8.42C10.335 8.69 10.1022 8.98 9.80865 9.27L9.12033 9.98C9.13045 10.01 9.14057 10.03 9.15069 10.05C9.27216 10.26 9.5151 10.62 9.98073 11.16C10.4767 11.72 10.9424 12.23 11.408 12.7C12.0052 13.28 12.5012 13.74 12.9669 14.12C13.5438 14.6 13.9184 14.84 14.1411 14.95L14.1208 15L14.8598 14.28C15.1736 13.97 15.4772 13.74 15.7708 13.59C16.3275 13.25 17.0361 13.19 17.7447 13.48C18.0078 13.59 18.2913 13.74 18.5949 13.95L21.9556 16.31C22.3301 16.56 22.6034 16.88 22.7654 17.26C22.9172 17.64 22.9881 17.99 22.9881 18.34C22.9881 18.82 22.8767 19.3 22.6642 19.75C22.4516 20.2 22.1884 20.59 21.8544 20.95C21.2774 21.58 20.6498 22.03 19.921 22.32C19.2225 22.6 18.4633 22.75 17.6637 22.75ZM5.65845 2.75C5.10171 2.75 4.58547 2.99 4.08947 3.47C3.62384 3.9 3.29992 4.37 3.09747 4.88C2.8849 5.4 2.78367 5.95 2.78367 6.54C2.78367 7.47 3.00637 8.48 3.45175 9.52C3.90726 10.58 4.54498 11.68 5.35477 12.78C6.16457 13.88 7.08571 14.95 8.09796 15.96C9.1102 16.95 10.2034 17.87 11.327 18.68C12.4202 19.47 13.5438 20.11 14.6573 20.57C16.3882 21.3 18.0078 21.47 19.344 20.92C19.8602 20.71 20.3158 20.39 20.7308 19.93C20.9636 19.68 21.1458 19.41 21.2976 19.09C21.4191 18.84 21.4798 18.58 21.4798 18.32C21.4798 18.16 21.4495 18 21.3685 17.82C21.3381 17.76 21.2774 17.65 21.0851 17.52L17.7244 15.16C17.522 15.02 17.3398 14.92 17.1677 14.85C16.945 14.76 16.8539 14.67 16.5097 14.88C16.3073 14.98 16.1251 15.13 15.9226 15.33L15.1533 16.08C14.7585 16.46 14.1512 16.55 13.6856 16.38L13.4122 16.26C12.9972 16.04 12.5113 15.7 11.9749 15.25C11.489 14.84 10.9626 14.36 10.3249 13.74C9.8289 13.24 9.3329 12.71 8.81665 12.12C8.3409 11.57 7.99673 11.1 7.78416 10.71L7.66269 10.41C7.60196 10.18 7.58171 10.05 7.58171 9.91C7.58171 9.55 7.7133 9.23 7.96637 8.98L8.72555 8.2C8.928 8 9.07984 7.81 9.18106 7.64C9.26204 7.51 9.29241 7.4 9.29241 7.3C9.29241 7.22 9.26204 7.1 9.21143 6.98C9.14057 6.82 9.02922 6.64 8.88751 6.45L6.5391 3.17C6.43788 3.03 6.31641 2.93 6.16457 2.86C6.00261 2.79 5.83053 2.75 5.65845 2.75ZM14.1208 15.01L13.9589 15.69L14.2322 14.99C14.1816 14.98 14.1411 14.99 14.1208 15.01Z" fill="black"/>
</svg>
