<svg width="25" height="24" viewBox="0 0 25 24" fill="none" xmlns="http://www.w3.org/2000/svg">
<path d="M5.60784 19.52C4.99037 19.52 4.41339 19.31 3.99837 18.92C3.472 18.43 3.21894 17.69 3.31004 16.89L3.68457 13.65C3.75543 13.04 4.12996 12.23 4.56522 11.79L12.8758 3.1C14.9509 0.929999 17.1171 0.87 19.3136 2.92C21.5102 4.97 21.5709 7.11 19.4958 9.28L11.1853 17.97C10.7602 18.42 9.97061 18.84 9.35314 18.94L6.09371 19.49C5.92163 19.5 5.7698 19.52 5.60784 19.52ZM16.1251 2.91C15.3456 2.91 14.6674 3.39 13.9791 4.11L5.66857 12.81C5.46612 13.02 5.23331 13.52 5.19282 13.81L4.81829 17.05C4.7778 17.38 4.85878 17.65 5.04098 17.82C5.22318 17.99 5.49649 18.05 5.83053 18L9.08996 17.45C9.38351 17.4 9.86939 17.14 10.0718 16.93L18.3824 8.24C19.6376 6.92 20.0931 5.7 18.2609 4C17.4511 3.23 16.7527 2.91 16.1251 2.91Z" fill="black"/>
<path d="M17.5523 10.95C17.5321 10.95 17.5017 10.95 17.4815 10.95C14.3233 10.64 11.7825 8.27 11.2967 5.17C11.2359 4.76 11.5193 4.38 11.9344 4.31C12.3494 4.25 12.734 4.53 12.8049 4.94C13.1895 7.36 15.1735 9.22 17.6434 9.46C18.0584 9.5 18.3621 9.87 18.3216 10.28C18.271 10.66 17.937 10.95 17.5523 10.95Z" fill="black"/>
<path d="M21.2571 22.75H3.03673C2.62171 22.75 2.27755 22.41 2.27755 22C2.27755 21.59 2.62171 21.25 3.03673 21.25H21.2571C21.6722 21.25 22.0163 21.59 22.0163 22C22.0163 22.41 21.6722 22.75 21.2571 22.75Z" fill="black"/>
</svg>
