<svg width="25" height="24" viewBox="0 0 25 24" fill="none" xmlns="http://www.w3.org/2000/svg">
<path d="M9.58596 15.28C9.39363 15.28 9.2013 15.21 9.04947 15.06C8.21943 14.24 7.76392 13.15 7.76392 12C7.76392 9.61 9.72767 7.67 12.1469 7.67C13.311 7.67 14.4144 8.12 15.2444 8.94C15.3861 9.08 15.4671 9.27 15.4671 9.47C15.4671 9.67 15.3861 9.86 15.2444 10L10.1224 15.06C9.97061 15.21 9.77828 15.28 9.58596 15.28ZM12.1469 9.17C10.5678 9.17 9.28228 10.44 9.28228 12C9.28228 12.5 9.41387 12.98 9.65681 13.4L13.5641 9.54C13.1389 9.3 12.6531 9.17 12.1469 9.17Z" fill="black"/>
<path d="M5.66857 18.51C5.49649 18.51 5.31429 18.45 5.17257 18.33C4.08947 17.42 3.11772 16.3 2.28768 15C1.2147 13.35 1.2147 10.66 2.28768 9C4.75755 5.18 8.35102 2.98 12.1469 2.98C14.3739 2.98 16.5704 3.74 18.4937 5.17C18.8278 5.42 18.8986 5.89 18.6456 6.22C18.3925 6.55 17.9167 6.62 17.5827 6.37C15.9226 5.13 14.0398 4.48 12.1469 4.48C8.87739 4.48 5.74955 6.42 3.5631 9.81C2.80392 10.98 2.80392 13.02 3.5631 14.19C4.32229 15.36 5.19282 16.37 6.15445 17.19C6.46825 17.46 6.50874 17.93 6.23543 18.25C6.09372 18.42 5.88114 18.51 5.66857 18.51Z" fill="black"/>
<path d="M12.1469 21.02C10.8007 21.02 9.48473 20.75 8.21943 20.22C7.83477 20.06 7.65257 19.62 7.81453 19.24C7.97649 18.86 8.42187 18.68 8.80653 18.84C9.87951 19.29 11.0031 19.52 12.1368 19.52C15.4064 19.52 18.5342 17.58 20.7206 14.19C21.4798 13.02 21.4798 10.98 20.7206 9.81C20.4069 9.32 20.0627 8.85 19.6983 8.41C19.4351 8.09 19.4857 7.62 19.8096 7.35C20.1335 7.09 20.6093 7.13 20.8826 7.46C21.2774 7.94 21.662 8.46 22.0062 9C23.0792 10.65 23.0792 13.34 22.0062 15C19.5363 18.82 15.9429 21.02 12.1469 21.02Z" fill="black"/>
<path d="M12.8454 16.27C12.4911 16.27 12.1672 16.02 12.0963 15.66C12.0154 15.25 12.2887 14.86 12.7037 14.79C13.8172 14.59 14.7484 13.67 14.9509 12.57C15.0319 12.16 15.4266 11.9 15.8416 11.97C16.2567 12.05 16.53 12.44 16.449 12.85C16.1251 14.58 14.7282 15.95 12.9871 16.27C12.9365 16.26 12.896 16.27 12.8454 16.27Z" fill="black"/>
<path d="M2.02448 22.75C1.83215 22.75 1.63982 22.68 1.48799 22.53C1.19443 22.24 1.19443 21.76 1.48799 21.47L9.04945 14C9.34301 13.71 9.82888 13.71 10.1224 14C10.416 14.29 10.416 14.77 10.1224 15.06L2.56097 22.53C2.40913 22.68 2.2168 22.75 2.02448 22.75Z" fill="black"/>
<path d="M14.7079 10.22C14.5156 10.22 14.3233 10.15 14.1714 10C13.8779 9.71 13.8779 9.23 14.1714 8.94L21.7329 1.47C22.0264 1.18 22.5123 1.18 22.8059 1.47C23.0994 1.76 23.0994 2.24 22.8059 2.53L15.2444 10C15.0926 10.15 14.9002 10.22 14.7079 10.22Z" fill="black"/>
</svg>
