<svg width="25" height="24" viewBox="0 0 25 24" fill="none" xmlns="http://www.w3.org/2000/svg">
<path d="M12.1469 21.65C11.8331 21.65 11.5295 21.61 11.2764 21.52C7.40963 20.21 1.2653 15.56 1.2653 8.69C1.2653 5.19 4.12996 2.35 7.65257 2.35C9.36326 2.35 10.9626 3.01 12.1469 4.19C13.3313 3.01 14.9306 2.35 16.6413 2.35C20.1639 2.35 23.0286 5.2 23.0286 8.69C23.0286 15.57 16.8842 20.21 13.0175 21.52C12.7644 21.61 12.4607 21.65 12.1469 21.65ZM7.65257 3.85C4.97012 3.85 2.78367 6.02 2.78367 8.69C2.78367 15.52 9.43412 19.32 11.7724 20.11C11.9546 20.17 12.3494 20.17 12.5316 20.11C14.8598 19.32 21.5203 15.53 21.5203 8.69C21.5203 6.02 19.3339 3.85 16.6514 3.85C15.1128 3.85 13.6855 4.56 12.7644 5.79C12.481 6.17 11.8331 6.17 11.5497 5.79C10.6083 4.55 9.19118 3.85 7.65257 3.85Z" fill="black"/>
</svg>
