<svg width="25" height="24" viewBox="0 0 25 24" fill="none" xmlns="http://www.w3.org/2000/svg">
<path d="M6.25566 22.75C6.15444 22.75 6.04309 22.74 5.95199 22.73L3.75542 22.43C2.70268 22.29 1.75117 21.36 1.58921 20.3L1.28554 18.11C1.18431 17.41 1.48799 16.5 1.99411 15.99L6.43786 11.6C5.71917 8.76 6.54921 5.76 8.6648 3.69C11.9445 0.46 17.279 0.45 20.5688 3.69C22.158 5.26 23.0286 7.35 23.0286 9.57C23.0286 11.79 22.158 13.88 20.5688 15.45C18.4431 17.53 15.4165 18.35 12.5619 17.63L8.10807 22.02C7.68293 22.46 6.92374 22.75 6.25566 22.75ZM14.6067 2.76C12.8353 2.76 11.0739 3.42 9.72766 4.75C7.90562 6.54 7.24766 9.16 8.00684 11.6C8.08782 11.87 8.01697 12.15 7.81452 12.35L3.05697 17.05C2.88489 17.22 2.74317 17.66 2.77354 17.89L3.07721 20.08C3.13795 20.46 3.55297 20.89 3.93762 20.94L6.14431 21.24C6.38725 21.28 6.83264 21.14 7.00472 20.97L11.7825 16.26C11.985 16.06 12.2785 16 12.5417 16.08C14.9812 16.84 17.6434 16.19 19.4655 14.39C20.7611 13.11 21.4798 11.39 21.4798 9.57C21.4798 7.74 20.7611 6.03 19.4655 4.75C18.1495 3.43 16.3781 2.76 14.6067 2.76Z" fill="black"/>
<path d="M9.30253 20.54C9.1102 20.54 8.91788 20.47 8.76604 20.32L6.43788 18.02C6.14432 17.73 6.14432 17.25 6.43788 16.96C6.73143 16.67 7.2173 16.67 7.51086 16.96L9.83902 19.26C10.1326 19.55 10.1326 20.03 9.83902 20.32C9.68718 20.47 9.49485 20.54 9.30253 20.54Z" fill="black"/>
<path d="M14.6775 11.75C13.4224 11.75 12.4 10.74 12.4 9.5C12.4 8.26 13.4224 7.25 14.6775 7.25C15.9327 7.25 16.9551 8.26 16.9551 9.5C16.9551 10.74 15.9327 11.75 14.6775 11.75ZM14.6775 8.75C14.2625 8.75 13.9184 9.09 13.9184 9.5C13.9184 9.91 14.2625 10.25 14.6775 10.25C15.0926 10.25 15.4367 9.91 15.4367 9.5C15.4367 9.09 15.0926 8.75 14.6775 8.75Z" fill="black"/>
</svg>
