<svg width="25" height="24" viewBox="0 0 25 24" fill="none" xmlns="http://www.w3.org/2000/svg">
<path d="M12.1469 22.81C11.4485 22.81 10.7905 22.46 10.3249 21.85L8.80653 19.85C8.77616 19.81 8.65469 19.76 8.60408 19.75H8.09796C3.8769 19.75 1.2653 18.62 1.2653 13V8C1.2653 3.58 3.62383 1.25 8.09796 1.25H16.1959C20.67 1.25 23.0286 3.58 23.0286 8V13C23.0286 17.42 20.67 19.75 16.1959 19.75H15.6898C15.6088 19.75 15.538 19.79 15.4873 19.85L13.969 21.85C13.5033 22.46 12.8454 22.81 12.1469 22.81ZM8.09796 2.75C4.47412 2.75 2.78367 4.42 2.78367 8V13C2.78367 17.52 4.35265 18.25 8.09796 18.25H8.60408C9.12032 18.25 9.70743 18.54 10.0212 18.95L11.5396 20.95C11.8939 21.41 12.4 21.41 12.7543 20.95L14.2727 18.95C14.6067 18.51 15.1331 18.25 15.6898 18.25H16.1959C19.8198 18.25 21.5102 16.58 21.5102 13V8C21.5102 4.42 19.8198 2.75 16.1959 2.75H8.09796Z" fill="black"/>
<path d="M12.1469 12C11.5801 12 11.1347 11.55 11.1347 11C11.1347 10.45 11.5902 10 12.1469 10C12.7037 10 13.1592 10.45 13.1592 11C13.1592 11.55 12.7138 12 12.1469 12Z" fill="black"/>
<path d="M16.1959 12C15.6291 12 15.1837 11.55 15.1837 11C15.1837 10.45 15.6392 10 16.1959 10C16.7526 10 17.2082 10.45 17.2082 11C17.2082 11.55 16.7628 12 16.1959 12Z" fill="black"/>
<path d="M8.09796 12C7.5311 12 7.08572 11.55 7.08572 11C7.08572 10.45 7.54123 10 8.09796 10C8.6547 10 9.11021 10.45 9.11021 11C9.11021 11.55 8.66482 12 8.09796 12Z" fill="black"/>
</svg>
