<svg width="25" height="24" viewBox="0 0 25 24" fill="none" xmlns="http://www.w3.org/2000/svg">
<path d="M12.1672 20.53C9.80866 20.53 7.45012 20.16 5.21306 19.42C4.36278 19.13 3.71494 18.54 3.43151 17.77C3.13796 17 3.23918 16.15 3.70482 15.39L4.8689 13.48C5.11184 13.08 5.33453 12.28 5.33453 11.81V8.92C5.33453 5.2 8.40163 2.17 12.1672 2.17C15.9327 2.17 18.9998 5.2 18.9998 8.92V11.81C18.9998 12.27 19.2225 13.08 19.4655 13.49L20.6194 15.39C21.0547 16.11 21.1357 16.98 20.8421 17.77C20.5486 18.56 19.9109 19.16 19.1112 19.42C16.8842 20.16 14.5257 20.53 12.1672 20.53ZM12.1672 3.67C9.2418 3.67 6.8529 6.02 6.8529 8.92V11.81C6.8529 12.54 6.54923 13.62 6.17469 14.25L5.01061 16.16C4.78792 16.53 4.72718 16.92 4.85878 17.25C4.98025 17.59 5.28392 17.85 5.69894 17.99C9.93012 19.39 14.4144 19.39 18.6456 17.99C19.01 17.87 19.2934 17.6 19.425 17.24C19.5566 16.88 19.5262 16.49 19.3238 16.16L18.1597 14.25C17.775 13.6 17.4815 12.53 17.4815 11.8V8.92C17.4815 6.02 15.1027 3.67 12.1672 3.67Z" fill="black"/>
<path d="M14.05 3.94C13.9791 3.94 13.9082 3.93 13.8374 3.91C13.5438 3.83 13.2604 3.77 12.9871 3.73C12.1267 3.62 11.2967 3.68 10.5172 3.91C10.2338 4 9.93012 3.91 9.73779 3.7C9.54547 3.49 9.48473 3.19 9.59608 2.92C10.0111 1.87 11.0233 1.18 12.1773 1.18C13.3313 1.18 14.3435 1.86 14.7585 2.92C14.8598 3.19 14.8091 3.49 14.6168 3.7C14.465 3.86 14.2524 3.94 14.05 3.94Z" fill="black"/>
<path d="M12.1672 22.81C11.1651 22.81 10.1933 22.41 9.48473 21.71C8.77616 21.01 8.37126 20.05 8.37126 19.06H9.88963C9.88963 19.65 10.1326 20.23 10.5577 20.65C10.9829 21.07 11.57 21.31 12.1672 21.31C13.4224 21.31 14.4447 20.3 14.4447 19.06H15.9631C15.9631 21.13 14.2625 22.81 12.1672 22.81Z" fill="black"/>
</svg>
