<svg width="25" height="24" viewBox="0 0 25 24" fill="none" xmlns="http://www.w3.org/2000/svg">
<path d="M17.2082 21.75H7.08571C2.62171 21.75 1.2653 20.41 1.2653 16V8C1.2653 3.59 2.62171 2.25 7.08571 2.25H17.2082C21.6722 2.25 23.0286 3.59 23.0286 8V16C23.0286 20.41 21.6722 21.75 17.2082 21.75ZM7.08571 3.75C3.46188 3.75 2.78367 4.43 2.78367 8V16C2.78367 19.57 3.46188 20.25 7.08571 20.25H17.2082C20.832 20.25 21.5102 19.57 21.5102 16V8C21.5102 4.43 20.832 3.75 17.2082 3.75H7.08571Z" fill="black"/>
<path d="M19.2327 8.75H14.1714C13.7564 8.75 13.4122 8.41 13.4122 8C13.4122 7.59 13.7564 7.25 14.1714 7.25H19.2327C19.6477 7.25 19.9918 7.59 19.9918 8C19.9918 8.41 19.6477 8.75 19.2327 8.75Z" fill="black"/>
<path d="M19.2327 12.75H15.1837C14.7687 12.75 14.4245 12.41 14.4245 12C14.4245 11.59 14.7687 11.25 15.1837 11.25H19.2327C19.6477 11.25 19.9918 11.59 19.9918 12C19.9918 12.41 19.6477 12.75 19.2327 12.75Z" fill="black"/>
<path d="M19.2327 16.75H17.2082C16.7931 16.75 16.449 16.41 16.449 16C16.449 15.59 16.7931 15.25 17.2082 15.25H19.2327C19.6477 15.25 19.9918 15.59 19.9918 16C19.9918 16.41 19.6477 16.75 19.2327 16.75Z" fill="black"/>
<path d="M8.60408 12.04C7.17682 12.04 6.01273 10.89 6.01273 9.48C6.01273 8.07 7.17682 6.92 8.60408 6.92C10.0313 6.92 11.1954 8.07 11.1954 9.48C11.1954 10.89 10.0313 12.04 8.60408 12.04ZM8.60408 8.42C8.01698 8.42 7.5311 8.9 7.5311 9.48C7.5311 10.06 8.01698 10.54 8.60408 10.54C9.19118 10.54 9.67706 10.06 9.67706 9.48C9.67706 8.9 9.19118 8.42 8.60408 8.42Z" fill="black"/>
<path d="M12.1469 17.08C11.7623 17.08 11.4282 16.79 11.3878 16.4C11.2764 15.32 10.3958 14.45 9.29241 14.35C8.82677 14.31 8.36114 14.31 7.89551 14.35C6.79216 14.45 5.91151 15.31 5.80016 16.4C5.75967 16.81 5.38514 17.12 4.97012 17.07C4.5551 17.03 4.25143 16.66 4.29192 16.25C4.47412 14.45 5.92163 13.02 7.75379 12.86C8.31053 12.81 8.87739 12.81 9.43412 12.86C11.2562 13.03 12.7138 14.46 12.896 16.25C12.9365 16.66 12.6328 17.03 12.2178 17.07C12.1975 17.08 12.1672 17.08 12.1469 17.08Z" fill="black"/>
</svg>
