<svg width="25" height="24" viewBox="0 0 25 24" fill="none" xmlns="http://www.w3.org/2000/svg">
<path d="M12.1469 22.63C11.4687 22.63 10.7804 22.48 10.2439 22.17L4.67657 19C2.40914 17.49 2.26743 17.26 2.26743 14.89V9.11C2.26743 6.74 2.39902 6.51 4.62596 5.02L10.2338 1.82C11.2967 1.21 12.9669 1.21 14.0297 1.82L19.6173 5C21.8847 6.51 22.0264 6.74 22.0264 9.11V14.88C22.0264 17.25 21.8949 17.48 19.6679 18.97L14.0601 22.17C13.5135 22.48 12.8251 22.63 12.1469 22.63ZM12.1469 2.87C11.7218 2.87 11.3068 2.95 11.0132 3.12L5.44588 6.3C3.79592 7.4 3.79592 7.4 3.79592 9.11V14.88C3.79592 16.59 3.79592 16.59 5.48637 17.72L11.0132 20.87C11.6104 21.21 12.6936 21.21 13.2908 20.87L18.8581 17.69C20.498 16.59 20.498 16.59 20.498 14.88V9.11C20.498 7.4 20.498 7.4 18.8075 6.27L13.2807 3.12C12.9871 2.95 12.5721 2.87 12.1469 2.87Z" fill="black"/>
<path d="M12.1469 15.75C10.0516 15.75 8.35102 14.07 8.35102 12C8.35102 9.93 10.0516 8.25 12.1469 8.25C14.2423 8.25 15.9429 9.93 15.9429 12C15.9429 14.07 14.2423 15.75 12.1469 15.75ZM12.1469 9.75C10.8918 9.75 9.86939 10.76 9.86939 12C9.86939 13.24 10.8918 14.25 12.1469 14.25C13.4021 14.25 14.4245 13.24 14.4245 12C14.4245 10.76 13.4021 9.75 12.1469 9.75Z" fill="black"/>
</svg>
