<svg width="25" height="24" viewBox="0 0 25 24" fill="none" xmlns="http://www.w3.org/2000/svg">
<path d="M20.8725 13.07C20.4878 13.07 20.1639 12.78 20.1133 12.4C19.8704 10.14 18.6354 8.09 16.7324 6.79C16.3882 6.55 16.3073 6.09 16.5401 5.75C16.783 5.41 17.2588 5.33 17.5928 5.56C19.8602 7.11 21.3179 9.55 21.6114 12.24C21.6519 12.65 21.3584 13.02 20.9332 13.07C20.9231 13.07 20.8927 13.07 20.8725 13.07Z" fill="black"/>
<path d="M3.53273 13.12C3.50237 13.12 3.48212 13.12 3.45175 13.12C3.03673 13.07 2.73306 12.7 2.77355 12.29C3.04686 9.6 4.49437 7.17 6.73143 5.6C7.07559 5.36 7.55134 5.44 7.79428 5.78C8.03722 6.12 7.95624 6.59 7.61208 6.83C5.7293 8.14 4.51461 10.19 4.28179 12.45C4.25143 12.83 3.91739 13.12 3.53273 13.12Z" fill="black"/>
<path d="M12.2077 22.61C10.7096 22.61 9.28229 22.27 7.94613 21.61C7.5716 21.42 7.41976 20.97 7.61209 20.6C7.80441 20.23 8.25992 20.08 8.63445 20.27C10.8209 21.36 13.4527 21.38 15.6594 20.33C16.034 20.15 16.4895 20.31 16.6717 20.68C16.8539 21.05 16.6919 21.5 16.3174 21.68C15.0217 22.3 13.6451 22.61 12.2077 22.61Z" fill="black"/>
<path d="M12.2077 8.44C10.2338 8.44 8.63445 6.86 8.63445 4.91C8.63445 2.96 10.2338 1.38 12.2077 1.38C14.1815 1.38 15.7809 2.96 15.7809 4.91C15.7809 6.86 14.1714 8.44 12.2077 8.44ZM12.2077 2.89C11.074 2.89 10.1528 3.8 10.1528 4.92C10.1528 6.04 11.074 6.95 12.2077 6.95C13.3414 6.95 14.2625 6.04 14.2625 4.92C14.2625 3.8 13.3313 2.89 12.2077 2.89Z" fill="black"/>
<path d="M4.88914 20.67C2.91526 20.67 1.31592 19.09 1.31592 17.14C1.31592 15.2 2.91526 13.61 4.88914 13.61C6.86302 13.61 8.46237 15.19 8.46237 17.14C8.46237 19.08 6.86302 20.67 4.88914 20.67ZM4.88914 15.11C3.75543 15.11 2.83429 16.02 2.83429 17.14C2.83429 18.26 3.75543 19.17 4.88914 19.17C6.02286 19.17 6.944 18.26 6.944 17.14C6.944 16.02 6.02286 15.11 4.88914 15.11Z" fill="black"/>
<path d="M19.4047 20.67C17.4309 20.67 15.8315 19.09 15.8315 17.14C15.8315 15.2 17.4309 13.61 19.4047 13.61C21.3786 13.61 22.978 15.19 22.978 17.14C22.9678 19.08 21.3685 20.67 19.4047 20.67ZM19.4047 15.11C18.271 15.11 17.3499 16.02 17.3499 17.14C17.3499 18.26 18.271 19.17 19.4047 19.17C20.5385 19.17 21.4596 18.26 21.4596 17.14C21.4495 16.02 20.5385 15.11 19.4047 15.11Z" fill="black"/>
</svg>
