<svg width="25" height="24" viewBox="0 0 25 24" fill="none" xmlns="http://www.w3.org/2000/svg">
<path d="M17.2082 21.25H7.08573C3.39103 21.25 1.26532 19.15 1.26532 15.5V8.5C1.26532 4.85 3.39103 2.75 7.08573 2.75H17.2082C20.9029 2.75 23.0286 4.85 23.0286 8.5V15.5C23.0286 19.15 20.9029 21.25 17.2082 21.25ZM7.08573 4.25C4.19071 4.25 2.78369 5.64 2.78369 8.5V15.5C2.78369 18.36 4.19071 19.75 7.08573 19.75H17.2082C20.1032 19.75 21.5102 18.36 21.5102 15.5V8.5C21.5102 5.64 20.1032 4.25 17.2082 4.25H7.08573Z" fill="black"/>
<path d="M12.1467 12.87C11.2964 12.87 10.436 12.61 9.77808 12.08L6.60975 9.57997C6.28583 9.31997 6.2251 8.84997 6.48828 8.52997C6.75147 8.20997 7.22722 8.14997 7.55114 8.40997L10.7195 10.91C11.4888 11.52 12.7946 11.52 13.5639 10.91L16.7322 8.40997C17.0561 8.14997 17.542 8.19997 17.7951 8.52997C18.0582 8.84997 18.0076 9.32997 17.6736 9.57997L14.5053 12.08C13.8574 12.61 12.997 12.87 12.1467 12.87Z" fill="black"/>
</svg>
