<svg width="25" height="24" viewBox="0 0 25 24" fill="none" xmlns="http://www.w3.org/2000/svg">
<path d="M15.4266 22.75H8.86726C6.95412 22.75 5.55722 21.96 5.02073 20.6C4.46399 19.18 4.98024 17.42 6.3164 16.23L11.0132 12L6.3164 7.77C4.98024 6.58 4.46399 4.82 5.02073 3.4C5.55722 2.03 6.95412 1.25 8.86726 1.25H15.4266C17.3397 1.25 18.7366 2.04 19.2731 3.4C19.8299 4.82 19.3136 6.58 17.9775 7.77L13.2806 12L17.9876 16.23C19.3136 17.42 19.84 19.18 19.2833 20.6C18.7366 21.96 17.3397 22.75 15.4266 22.75ZM12.1469 13.01L7.33877 17.33C6.48848 18.1 6.11395 19.22 6.43787 20.05C6.74154 20.82 7.60195 21.25 8.86726 21.25H15.4266C16.6919 21.25 17.5523 20.83 17.856 20.05C18.1799 19.22 17.8155 18.1 16.9551 17.33L12.1469 13.01ZM8.86726 2.75C7.60195 2.75 6.74154 3.17 6.43787 3.95C6.11395 4.78 6.47836 5.9 7.33877 6.67L12.1469 10.99L16.9551 6.67C17.8054 5.9 18.1799 4.78 17.856 3.95C17.5523 3.18 16.6919 2.75 15.4266 2.75H8.86726Z" fill="black"/>
</svg>
